<?xml version="1.0" standalone="no"?><!DOCTYPE svg PUBLIC "-//W3C//DTD SVG 1.1//EN" "http://www.w3.org/Graphics/SVG/1.1/DTD/svg11.dtd"><svg t="1699979976626" class="icon" viewBox="0 0 1024 1024" version="1.1" xmlns="http://www.w3.org/2000/svg" p-id="4182" xmlns:xlink="http://www.w3.org/1999/xlink" width="200" height="200"><path d="M1002.608 384.004H448.002c-11.796 0-21.36 9.532-21.36 21.312v426.67c0 11.812 9.562 21.312 21.36 21.312h341.3l149.308 85.372V853.3h63.996c11.812 0 21.376-9.5 21.376-21.312V405.318c0-11.782-9.562-21.314-21.374-21.314z" fill="#EC87C0" p-id="4183"></path><path d="M448.002 384.004c-11.796 0-21.36 9.532-21.36 21.312v277.366h319.974a21.366 21.366 0 0 0 21.376-21.376V384.004H448.002z" fill="#D770AD" p-id="4184"></path><path d="M703.994 85.328H21.33C9.534 85.328 0.018 94.89 0.018 106.672v512.012c0 11.75 9.516 21.312 21.312 21.312h63.998v127.996l230.382-127.996h388.284c11.75 0 21.312-9.562 21.312-21.312V106.67c0-11.78-9.562-21.342-21.312-21.342z" fill="#AC92EB" p-id="4185"></path><path d="M433.784 213.324c-27.858 0-53.044 11.468-71.106 29.906-18.078-18.436-43.25-29.906-71.124-29.906-54.966 0-99.544 44.592-99.544 99.558 0 113.778 170.666 213.306 170.666 213.306s170.65-99.528 170.65-213.306c0.002-54.966-44.56-99.558-99.542-99.558z" fill="#F5F7FA" p-id="4186"></path><path d="M433.784 213.324c-7.328 0-14.468 0.812-21.342 2.312 44.732 9.782 78.232 49.592 78.232 97.246 0 88.624-103.558 168.62-149.338 199.65 13 8.812 21.344 13.656 21.344 13.656s170.65-99.528 170.65-213.306c-0.002-54.966-44.564-99.558-99.546-99.558z" opacity=".1" p-id="4187"></path></svg>